<svg id="Capa_1" enable-background="new 0 0 512.001 512.001" height="512" viewBox="0 0 512.001 512.001" width="512" xmlns="http://www.w3.org/2000/svg"><path d="m107.783 291.616h109.763v212.885h-109.763z" fill="#fcb143"/><path d="m107.783 291.616h109.763v32.779h-109.763z" fill="#fa9801"/><path d="m107.783 291.616h30.341v212.885h-30.341z" fill="#fa9801"/><path d="m292.004 117.532-15.195 15.195c-23.902 23.902-41.816 53.122-52.279 85.268l-9.706 29.839h-100.936c-5.3 0-10.205-1.678-14.223-4.526h-.009l-81.723-57.794c-10.858-7.675-13.62-22.509-6.427-33.548.172-.267.353-.533.533-.792 7.856-11.117 23.231-13.749 34.348-5.894l41.913 29.642c-1.747-19.316-5.945-38.366-12.511-56.684l-20.409-56.9c-4.595-12.812 2.056-26.923 14.868-31.517 12.812-4.595 26.923 2.065 31.509 14.877l22.965 63.998v-76.552c0-13.397 10.686-24.298 23.997-24.625.052-.009.112-.009.164-.009 13.81-.258 25.116 11.375 25.116 25.193v77.679l23.248-72.499c4.13-12.872 17.854-19.996 30.734-16.012.086.026.163.052.249.077 12.958 4.156 20.099 18.026 15.944 30.984l-20.186 62.922 33.169-33.169c9.628-9.619 25.228-9.619 34.847 0 9.628 9.619 9.628 25.227 0 34.847z" fill="#d38678"/><g fill="#c86e57"><path d="m292.004 82.685c-6.557-6.557-29.846 17.324-44.292 33.538-6.367 7.147-17.589 6.977-23.725-.369l33.169-33.169c9.629-9.62 25.228-9.62 34.848 0z"/><path d="m227.98 21.87c-9.779-2.37-26.577 52.553-34.639 81.227-2.342 8.331-12.087 12-19.344 7.285l23.248-72.499c4.131-12.872 17.855-19.996 30.735-16.013z"/><path d="m124.721 108.695v-76.551c0-13.397 10.686-24.298 23.997-24.625-7.302.85-7.952 59.754-7.804 89.957.042 8.389-8.35 14.2-16.193 11.219z"/><path d="m224.53 217.994-9.706 29.839h-100.936c-5.3 0-10.205-1.678-14.223-4.526h-.009l-81.723-57.794c-10.858-7.675-13.62-22.509-6.427-33.548-6.22 14.92 129.339 106.091 213.024 66.029z"/><path d="m111.927 168.925c-13.689.929-23.627 5.997-23.627 5.997-1.747-19.316-5.946-38.366-12.511-56.684l-20.409-56.9c-4.595-12.812 2.056-26.923 14.868-31.517-10.351 5.455 40.939 137.211 41.67 139.087z"/></g><path d="m104.226 247.833h116.051v63.342h-116.051z" fill="#fcb143"/><path d="m104.226 247.833h40.247v63.342h-40.247z" fill="#fa9801"/><path d="m313.066 443.784h109.763v60.717h-109.763z" fill="#0a93a3"/><path d="m313.066 443.784h109.763v32.779h-109.763z" fill="#046b74"/><path d="m313.066 443.784h30.341v60.717h-30.341z" fill="#046b74"/><path d="m497.287 269.7-15.195 15.195c-23.902 23.902-41.816 53.122-52.279 85.268l-9.706 29.839h-100.936c-5.3 0-10.205-1.678-14.223-4.526h-.009l-81.723-57.794c-10.858-7.675-13.62-22.509-6.427-33.548.172-.267.353-.533.533-.792 7.856-11.117 23.231-13.749 34.348-5.894l41.911 29.641c-1.747-19.316-5.945-38.366-12.511-56.684l-20.409-56.9c-4.595-12.812 2.056-26.923 14.868-31.517 12.812-4.595 26.923 2.065 31.509 14.877l22.965 63.998v-76.551c0-13.397 10.686-24.298 23.997-24.625.052-.009.112-.009.164-.009 13.81-.258 25.116 11.375 25.116 25.193v77.679l23.248-72.499c4.13-12.872 17.854-19.996 30.734-16.012.086.026.163.052.249.077 12.958 4.156 20.099 18.026 15.944 30.984l-20.186 62.922 33.169-33.169c9.628-9.619 25.228-9.619 34.847 0 9.63 9.619 9.63 25.227.002 34.847z" fill="#fcd0a3"/><path d="m497.287 234.853c-6.557-6.557-29.846 17.324-44.292 33.538-6.367 7.147-17.589 6.977-23.725-.369l33.169-33.169c9.629-9.62 25.228-9.62 34.848 0z" fill="#ffb983"/><path d="m433.263 174.039c-9.779-2.37-26.577 52.553-34.639 81.227-2.342 8.331-12.087 12-19.344 7.285l23.248-72.499c4.131-12.873 17.854-19.997 30.735-16.013z" fill="#ffb983"/><path d="m330.004 260.863v-76.551c0-13.397 10.686-24.298 23.997-24.625-7.302.85-7.952 59.754-7.804 89.957.041 8.389-8.35 14.2-16.193 11.219z" fill="#ffb983"/><path d="m429.813 370.163-9.706 29.839h-100.936c-5.3 0-10.205-1.678-14.223-4.526h-.009l-81.723-57.794c-10.858-7.675-13.62-22.509-6.427-33.548-6.22 14.92 129.339 106.09 213.024 66.029z" fill="#ffb983"/><path d="m317.209 321.093c-13.689.929-23.627 5.997-23.627 5.997-1.747-19.316-5.946-38.366-12.511-56.684l-20.409-56.9c-4.595-12.812 2.056-26.923 14.868-31.517-10.351 5.455 40.939 137.211 41.67 139.087z" fill="#ffb983"/><path d="m309.508 400.001h116.051v63.342h-116.051z" fill="#0a93a3"/><path d="m309.508 400.001h40.247v63.342h-40.247z" fill="#046b74"/><path d="m502.593 229.55c-6.069-6.069-14.141-9.412-22.729-9.412-8.587 0-16.659 3.342-22.729 9.412l-11.262 11.263 10.718-33.417c5.413-16.87-3.907-35.003-20.785-40.424-16.885-5.409-35.015 3.923-40.418 20.792l-8.608 26.843v-29.743c0-8.757-3.607-17.32-9.896-23.492-6.207-6.091-14.297-9.364-22.868-9.197-17.377.338-31.515 14.755-31.515 32.139v33.433l-8.399-23.413c-2.896-8.083-8.768-14.552-16.532-18.217s-16.491-4.084-24.568-1.184c-8.082 2.896-14.551 8.767-18.216 16.532s-4.084 16.492-1.184 24.57l20.41 56.911c4.444 12.384 7.774 25.164 9.952 38.158l-27.961-19.774c-8.512-6.022-18.973-7.303-28.229-4.394v-39.105c0-2.493-1.221-4.695-3.093-6.059l6.982-21.458c10.049-30.876 27.495-59.331 50.452-82.287l15.189-15.19c6.073-6.074 9.419-14.147 9.419-22.732 0-8.586-3.347-16.658-9.419-22.724-12.531-12.529-32.916-12.529-45.447 0l-11.263 11.263 10.719-33.422c5.403-16.873-3.923-35.004-20.795-40.42-16.873-5.403-35.005 3.924-40.418 20.792l-8.608 26.843v-29.742c0-8.76-3.607-17.324-9.896-23.497-6.204-6.088-14.337-9.366-22.859-9.192-17.383.337-31.524 14.754-31.524 32.138v33.416l-8.391-23.4c-2.901-8.08-8.774-14.548-16.537-18.211-7.765-3.665-16.49-4.084-24.561-1.184-16.682 5.977-25.389 24.415-19.41 41.102l20.411 56.911c4.448 12.398 7.781 25.177 9.959 38.16l-27.969-19.775c-7.008-4.958-15.527-6.89-23.992-5.438-8.462 1.452-15.851 6.112-20.802 13.119-4.958 7.009-6.89 15.528-5.438 23.989 1.452 8.458 6.11 15.847 13.119 20.805l16.52 11.69c3.379 2.392 8.061 1.591 10.454-1.79s1.591-8.062-1.79-10.454l-16.521-11.69c-7.716-5.459-9.555-16.174-4.097-23.889 2.64-3.736 6.579-6.221 11.091-6.995 4.513-.774 9.056.256 12.794 2.901l41.919 29.64c2.236 1.581 5.135 1.791 7.577.615.053-.021.107-.033.159-.06.093-.047 9.605-4.735 22.118-5.275 16.673-.726 30.699 6.027 41.677 20.054 1.479 1.891 3.684 2.878 5.912 2.878 1.616 0 3.245-.521 4.617-1.594 3.262-2.553 3.837-7.267 1.284-10.528-17.604-22.493-39.164-26.447-54.137-25.796-7.239.313-13.629 1.712-18.5 3.171-2.205-16.631-6.169-33.006-11.836-48.8l-20.409-56.911c-3.188-8.899 1.454-18.732 10.355-21.922 4.304-1.546 8.954-1.323 13.093.631 4.141 1.954 7.274 5.405 8.821 9.712l22.949 64c1.231 3.433 4.753 5.482 8.345 4.858 3.593-.625 6.215-3.743 6.215-7.389v-76.55c0-9.272 7.543-16.961 16.811-17.141 4.494-.076 8.76 1.656 12.066 4.9 3.434 3.369 5.403 8.031 5.403 12.791v77.689c0 3.695 2.69 6.839 6.341 7.41 3.649.569 7.173-1.601 8.301-5.12l23.25-72.498c2.888-8.997 12.562-13.972 21.556-11.091 8.997 2.888 13.972 12.56 11.09 21.558l-20.18 62.919c-1.058 3.297.279 6.889 3.235 8.693 2.955 1.804 6.762 1.349 9.21-1.099l33.17-33.169c6.68-6.681 17.552-6.681 24.235.003 3.239 3.236 5.023 7.538 5.023 12.115 0 4.578-1.785 8.885-5.026 12.125l-15.189 15.19c-24.621 24.62-43.331 55.137-54.108 88.252l-8.024 24.658h-95.544c-3.542-.01-6.94-1.096-9.831-3.146-.097-.068-.195-.135-.294-.198l-40.433-28.596c-3.382-2.393-8.062-1.589-10.454 1.792-2.392 3.382-1.589 8.062 1.793 10.454l40.72 28.8c.105.075.213.146.322.215.349.241.711.454 1.067.68v60.849c0 2.695 1.426 5.051 3.56 6.373v186.948c0 4.142 3.358 7.5 7.5 7.5h109.768c4.142 0 7.5-3.358 7.5-7.5v-156.333l75.562 53.437c.139.098.279.191.423.278.318.219.649.41.974.617v60.843c0 2.694 1.425 5.049 3.558 6.372v34.786c0 4.142 3.357 7.5 7.5 7.5h109.763c4.143 0 7.5-3.358 7.5-7.5v-35.368c1.668-1.376 2.731-3.458 2.731-5.789v-63.342c0-2.496-1.224-4.701-3.099-6.064l6.981-21.455c.012-.037.023-.074.035-.111.046-.149.1-.299.151-.443 1.401-3.898-.623-8.194-4.521-9.595-3.894-1.4-8.192.623-9.594 4.521-.121.336-.242.686-.352 1.035l-8.007 24.611h-95.496c-3.563-.003-6.972-1.089-9.862-3.143-.131-.093-.264-.181-.398-.264l-81.354-57.534c-7.716-5.459-9.555-16.174-4.1-23.886 5.46-7.718 16.181-9.558 23.896-4.098l41.909 29.64c2.232 1.577 5.125 1.791 7.566.621.058-.022.118-.036.175-.066.093-.047 9.605-4.735 22.118-5.275 16.689-.717 30.699 6.028 41.677 20.055 1.479 1.891 3.684 2.878 5.911 2.878 1.617 0 3.246-.521 4.617-1.594 3.262-2.553 3.837-7.267 1.284-10.528-17.604-22.493-39.151-26.445-54.137-25.797-7.241.313-13.632 1.713-18.503 3.171-2.205-16.65-6.167-33.025-11.828-48.8l-20.411-56.913c-1.547-4.309-1.323-8.962.631-13.102 1.953-4.14 5.402-7.27 9.716-8.815 4.308-1.546 8.961-1.324 13.102.63 4.139 1.954 7.269 5.402 8.813 9.714l22.96 64c1.231 3.433 4.76 5.482 8.345 4.856 3.593-.625 6.215-3.743 6.215-7.389v-76.549c0-9.272 7.539-16.961 16.801-17.142 4.496-.09 8.766 1.658 12.075 4.905 3.434 3.37 5.403 8.03 5.403 12.786v77.689c0 3.695 2.69 6.839 6.341 7.41 3.653.575 7.172-1.601 8.301-5.119l23.251-72.502c2.881-8.996 12.551-13.969 21.553-11.087 8.998 2.891 13.971 12.561 11.083 21.559l-20.18 62.919c-1.058 3.297.279 6.889 3.235 8.693 2.954 1.803 6.762 1.348 9.21-1.099l33.169-33.169c3.235-3.236 7.541-5.018 12.121-5.018 4.581 0 8.886 1.782 12.122 5.018 6.68 6.68 6.679 17.557.001 24.242l-15.202 15.193c-17.198 17.208-31.366 36.983-42.111 58.774-1.832 3.715-.306 8.212 3.41 10.043 3.715 1.833 8.211.305 10.043-3.41 10.019-20.319 23.23-38.758 39.265-54.801l15.203-15.194c12.526-12.537 12.524-32.927-.002-45.453zm-183.422 177.952h98.889v48.342h-101.052v-48.342h2.15c.005-.001.009 0 .013 0zm96.158 89.499h-94.763v-26.157h94.763zm-301.446-241.668h98.891v41.646c-.545.654-1.075 1.326-1.575 2.032-1.062 1.501-1.968 3.064-2.738 4.669h-96.74v-48.349h2.109c.019 0 .036.002.053.002zm1.399 241.668v-178.321h90.056c.198 5.508 1.8 10.93 4.712 15.691v162.63z"/></svg>