<svg id="Capa_1" enable-background="new 0 0 511.998 511.998" height="512" viewBox="0 0 511.998 511.998" width="512" xmlns="http://www.w3.org/2000/svg"><path d="m276.672 372.706h-40.839c-18.291 0-33.119-14.828-33.119-33.119v-49.587h107.076v49.587c.001 18.291-14.827 33.119-33.118 33.119z" fill="#fcd0a3"/><path d="m382.562 227.381h.177c15.189 0 27.497-12.318 27.497-27.497 0-15.189-12.307-27.507-27.497-27.507-.198 0-.395 0-.593.01h-251.787c-.198-.01-.395-.01-.593-.01-15.189 0-27.497 12.318-27.497 27.507 0 15.179 12.307 27.497 27.497 27.497h.177" fill="#ffb983"/><path d="m309.791 316.724s77.875 9.792 77.875 47.113 0 90.174 0 90.174h-47.819v50.487h-167.191v-50.487h-47.819s0-52.852 0-90.174 77.875-47.113 77.875-47.113" fill="#fcb143"/><path d="m309.786 335.486v4.105c0 18.293-14.821 33.114-33.114 33.114h-17.947c-18.281 0-33.114-14.821-33.114-33.114v-3.329c28.054.704 56.121.442 84.175-.776z" fill="#fcd0a3"/><path d="m309.79 290.005v45.489l-.012-.012c-28.055 1.217-56.121 1.48-84.176.776v3.329c0 18.293 14.833 33.114 33.114 33.114h-22.888c-18.281 0-33.114-14.821-33.114-33.114v-49.582z" fill="#ffb983"/><path d="m376.237 100.574c-79.989-7.755-159.979-7.755-239.968 0-6.207 49.734-8.035 99.469-5.485 149.203 1.857 36.204 30.827 65.021 67.038 66.731 38.954 1.839 77.907 1.839 116.861 0 36.211-1.71 65.182-30.527 67.039-66.731 2.55-49.734.722-99.468-5.485-149.203z" fill="#fcd0a3"/><path d="m136.273 100.566c39.988-3.878 79.987-5.811 119.987-5.811-20.25 0-40.501 1.957-60.751 5.871-3.15 50.214-4.069 100.429-2.78 150.631.847 33.043 12.924 59.988 28.771 66.133-7.888-.215-15.787-.513-23.675-.883-36.205-1.706-65.178-30.525-67.04-66.73-2.543-49.737-.717-99.474 5.488-149.211z" fill="#ffb983"/><path d="m381.47 150.103c-25.537 25.549-76.109-25.537-76.109-25.537 1.432 9.248-1.169 18.258-11.193 25.417-7.1 5.072-15.131 7.303-23.448 7.637-33.329 1.337-71.109-27.971-71.109-27.971-6.73 18.508-26.587 18.138-43.043 14.081-15.143-3.735-27.935-13.759-35.238-27.542-12.554-23.687-29.57-63.758-12.219-81.109 25.417-25.417 56.945 0 56.945 0s30.62-11.491 69.701-19.63c.012 0 .036-.012.048-.012 46.766-9.737 105.631-14.702 138.698 10.501 34.127 26.015 32.516 98.628 6.967 124.165z" fill="#3c5959"/><path d="m270.72 157.621c-33.329 1.337-71.109-27.971-71.109-27.971-6.73 18.508-26.587 18.138-43.043 14.081-15.143-3.735-27.935-13.759-35.238-27.542-12.554-23.687-29.57-63.758-12.219-81.109 25.417-25.417 56.945 0 56.945 0s30.62-11.491 69.701-19.63c-50.526 13.27-9.106 126.347 34.963 142.171z" fill="#394949"/><path d="m339.247 354.402h-166.535c-13.526 0-24.49 10.965-24.49 24.49v101.116c0 13.526 10.965 24.49 24.49 24.49h166.535c13.526 0 24.49-10.965 24.49-24.49v-101.116c0-13.526-10.965-24.49-24.49-24.49z" fill="#e5ecf1"/><path d="m146.58 474.33h-1.423c-11.222 0-20.318-9.097-20.318-20.318v-17.593c0-11.222 9.097-20.318 20.318-20.318h1.423c11.222 0 20.318 9.097 20.318 20.318v17.593c0 11.221-9.096 20.318-20.318 20.318z" fill="#fcd0a3"/><path d="m154.507 472.717c-2.441 1.04-5.122 1.61-7.932 1.61h-1.421c-11.223 0-20.316-9.093-20.316-20.316v-17.595c0-11.223 9.093-20.316 20.316-20.316h1.421c2.811 0 5.492.57 7.932 1.6-7.282 3.081-12.394 10.303-12.394 18.716v17.595c0 8.413 5.111 15.635 12.394 18.706z" fill="#ffb983"/><path d="m367.349 474.33h-1.423c-11.222 0-20.318-9.097-20.318-20.318v-17.593c0-11.222 9.097-20.318 20.318-20.318h1.423c11.222 0 20.318 9.097 20.318 20.318v17.593c.001 11.221-9.096 20.318-20.318 20.318z" fill="#fcd0a3"/><path d="m375.276 472.717c-2.441 1.04-5.122 1.61-7.932 1.61h-1.421c-11.223 0-20.316-9.093-20.316-20.316v-17.595c0-11.223 9.093-20.316 20.316-20.316h1.421c2.811 0 5.492.57 7.932 1.6-7.282 3.081-12.394 10.303-12.394 18.716v17.595c.001 8.413 5.112 15.635 12.394 18.706z" fill="#ffb983"/><path d="m389.209 250.164c.273-5.326.478-10.667.651-16.013 15.894-3.299 27.876-17.409 27.876-34.266 0-17.044-12.243-31.274-28.393-34.373-.192-4.049-.415-8.093-.665-12.131 13.44-15.143 20.834-42.391 18.942-70.514-1.854-27.545-12.271-50.472-28.58-62.901-39.589-30.167-111.429-20.616-164.725-7.293-4.019 1.005-6.461 5.077-5.457 9.095 1.006 4.019 5.084 6.461 9.096 5.457 41.018-10.254 115.307-23.284 151.994 4.671 12.866 9.805 21.142 28.75 22.705 51.977 1.677 24.907-4.947 49.394-16.479 60.931-3.335 3.333-7.398 4.954-12.422 4.954-.017 0-.032 0-.049 0-18.727-.039-44.617-22.013-53.011-30.473-2.287-2.312-5.804-2.884-8.705-1.421-2.903 1.463-4.534 4.63-4.037 7.844 1.175 7.595-1.413 13.372-8.14 18.179-30.615 21.863-85.06-19.739-85.603-20.159-1.894-1.469-4.373-1.946-6.678-1.28-2.303.665-4.148 2.39-4.968 4.642-1.47 4.04-5.944 16.331-34.201 9.357-13.025-3.211-24.104-11.87-30.397-23.758-18.618-35.144-23.684-62.172-13.548-72.301 20.264-20.264 45.865-.31 46.926.535 2.065 1.666 4.859 2.115 7.342 1.184.079-.03 8.085-3.021 20.86-6.957 3.959-1.219 6.179-5.417 4.96-9.376-1.22-3.959-5.418-6.177-9.376-4.96-8.097 2.494-14.281 4.6-17.943 5.889-3.744-2.452-10.162-6.106-18.001-8.359-17.246-4.955-32.937-1-45.373 11.435-19.856 19.844-5.033 59.858 10.896 89.929 2.822 5.329 6.389 10.151 10.525 14.381-.882 10.445-1.574 20.925-2.073 31.423-16.147 3.1-28.389 17.33-28.389 34.373 0 16.852 11.974 30.959 27.86 34.263.173 5.346.392 10.686.665 16.016 1.522 29.767 19.412 54.882 44.925 66.69-2.316.732-4.666 1.524-7.021 2.385-20.011 7.312-43.863 20.984-43.863 44.597l.002 90.176c0 13.843 10.166 25.354 23.423 27.468.771 16.959 14.805 30.519 31.95 30.519h126.489c4.143 0 7.5-3.358 7.5-7.5s-3.357-7.5-7.5-7.5h-126.487c-9.279 0-16.832-7.48-16.974-16.725 10.852-3.795 18.661-14.131 18.661-26.262v-17.593c0-12.136-7.815-22.475-18.674-26.267v-31.262c0-9.367 7.62-16.988 16.987-16.988h166.531c9.372 0 16.997 7.621 16.997 16.988v31.452c-10.577 3.942-18.133 14.142-18.133 26.076v17.593c0 11.933 7.554 22.132 18.129 26.075-.041 9.332-7.646 16.913-16.993 16.913h-10.033c-4.143 0-7.5 3.358-7.5 7.5s3.357 7.5 7.5 7.5h10.033c17.125 0 31.148-13.519 31.958-30.441 13.522-1.882 23.967-13.514 23.967-27.546v-90.176c0-23.614-23.853-37.286-43.863-44.597-2.355-.861-4.705-1.653-7.021-2.385 25.513-11.809 43.402-36.924 44.925-66.69zm13.526-50.279c0 8.38-5.188 15.561-12.515 18.531.173-12.386.079-24.79-.281-37.174 7.474 2.899 12.796 10.153 12.796 18.643zm-292.965 0c0-8.485 5.316-15.735 12.783-18.639-.362 12.39-.457 24.789-.285 37.163-7.318-2.973-12.498-10.151-12.498-18.524zm191.459 147.017h-89.964c-.701-2.352-1.054-4.799-1.054-7.314v-15.062c15.305.565 30.67.857 46.042.857 15.365 0 30.731-.292 46.031-.856v15.061c0 2.515-.354 4.962-1.055 7.314zm-141.831 107.109c0 7.068-5.75 12.818-12.818 12.818h-1.423c-7.068 0-12.818-5.75-12.818-12.818v-17.593c0-7.068 5.75-12.819 12.818-12.819h1.423c7.068 0 12.818 5.75 12.818 12.819zm-18.674-75.121v30.067c-2.98.479-5.801 1.436-8.388 2.785v-47.907c0-14.893 18.381-24.769 33.801-30.431 10.84-3.981 21.818-6.464 29.073-7.842v14.025c0 2.454.232 4.904.673 7.314h-23.172c-17.637.001-31.987 14.351-31.987 31.989zm239.444 75.121c0 7.068-5.75 12.818-12.818 12.818h-1.424c-7.068 0-12.818-5.75-12.818-12.818v-17.593c0-7.068 5.75-12.819 12.818-12.819h1.424c7.068 0 12.818 5.75 12.818 12.819zm0-90.176v47.906c-2.742-1.43-5.749-2.417-8.928-2.864v-29.987c0-17.638-14.354-31.988-31.997-31.988h-22.632c.441-2.41.673-4.861.673-7.314v-14.027c7.256 1.377 18.239 3.861 29.083 7.843 15.42 5.662 33.801 15.538 33.801 30.431zm-65.844-54.818c-38.532 1.822-77.607 1.822-116.146 0-32.49-1.531-58.242-27.162-59.902-59.621-1.777-34.641-1.387-69.71 1.144-104.438 4.784 2.668 9.938 4.718 15.349 6.052 27.275 6.732 40.758-1.324 47.398-10.335 12.674 8.498 40.041 24.501 66.387 24.501 10.482 0 20.806-2.534 29.975-9.083 6.255-4.47 10.561-9.902 12.826-16.091 2.665 2.196 5.706 4.578 9.02 6.967 16.328 11.772 30.888 17.758 43.274 17.791 3.76.004 7.287-.533 10.575-1.593 1.467 28.68 1.47 57.63.004 86.231-1.66 32.457-27.412 58.088-59.904 59.619z"/><path d="m285.196 229.735c-3.739-1.776-8.215-.183-9.991 3.56-3.456 7.282-10.896 11.987-18.952 11.987-8.058 0-15.497-4.705-18.953-11.987-1.776-3.743-6.251-5.334-9.991-3.56-3.742 1.776-5.336 6.249-3.56 9.991 5.927 12.487 18.685 20.555 32.504 20.555 13.818 0 26.576-8.069 32.503-20.555 1.776-3.742.182-8.215-3.56-9.991z"/><path d="m197.704 173.199c-6.305 0-11.435 7.638-11.435 17.027s5.13 17.028 11.435 17.028c6.306 0 11.436-7.638 11.436-17.028-.001-9.389-5.131-17.027-11.436-17.027z"/><path d="m314.801 173.199c-6.306 0-11.436 7.638-11.436 17.027s5.13 17.028 11.436 17.028c6.305 0 11.435-7.638 11.435-17.028 0-9.389-5.13-17.027-11.435-17.027z"/><path d="m215.537 474.872c2.223 0 4.324-1.511 4.324-3.108v-3.098c6.518-1.077 11.943-3.743 15.697-7.713 4.027-4.26 6.069-9.805 6.069-16.48 0-6.73-2.341-12.033-7.156-16.213-4.234-3.676-9.755-5.924-14.61-7.741v-15.91c3.947.328 6.364 1.581 8.312 2.589 1.541.799 2.872 1.489 4.491 1.489 2.75 0 4.431-1.889 5.355-3.473 1.195-2.047 1.619-4.356 1.619-5.712 0-3.4-2.491-5.991-7.403-7.701-4.438-1.544-9.608-1.938-12.374-2.033v-2.642c0-1.598-2.102-3.108-4.324-3.108-2.385 0-4.324 1.394-4.324 3.108v2.985c-6.283.906-11.606 3.184-15.399 6.59-4.444 3.991-6.698 9.357-6.698 15.949 0 14.401 12.23 19.093 22.098 22.847v17.664c-4.273-.787-7.287-2.945-9.95-4.851-2.309-1.653-4.303-3.08-6.498-3.08-4.358 0-7.639 5.706-7.639 9.406 0 3.458 2.6 7.021 7.132 9.775 4.624 2.81 10.642 4.481 16.955 4.709v2.642c-.001 1.716 1.938 3.11 4.323 3.11zm-3.219-69.914v12.807c-4.778-2.039-6.821-4.07-6.821-6.772 0-2.935 2.483-5.129 6.821-6.035zm6.438 48.084v-14.449c4.485 2.154 6.489 4.517 6.489 7.647 0 4.287-3.492 6.066-6.489 6.802z"/><path d="m264.014 407.526h58.009c4.143 0 7.5-3.358 7.5-7.5s-3.357-7.5-7.5-7.5h-58.009c-4.143 0-7.5 3.358-7.5 7.5s3.358 7.5 7.5 7.5z"/><path d="m264.014 436.945h58.009c4.143 0 7.5-3.358 7.5-7.5s-3.357-7.5-7.5-7.5h-58.009c-4.143 0-7.5 3.358-7.5 7.5s3.358 7.5 7.5 7.5z"/></svg>